<?xml version="1.0" standalone="no"?>
<!DOCTYPE svg PUBLIC "-//W3C//DTD SVG 20010904//EN"
 "http://www.w3.org/TR/2001/REC-SVG-20010904/DTD/svg10.dtd">
<svg version="1.0" xmlns="http://www.w3.org/2000/svg"
 width="96.000000pt" height="96.000000pt" viewBox="0 0 96.000000 96.000000"
 preserveAspectRatio="xMidYMid meet">
<metadata>
Created by potrace 1.15, written by Peter Selinger 2001-2017
</metadata>
<g transform="translate(0.000000,96.000000) scale(0.100000,-0.100000)"
fill="#000000" stroke="none">
<path d="M180 860 c-19 -19 -20 -33 -20 -380 0 -347 1 -361 20 -380 18 -18 33
-20 190 -20 l170 0 0 49 c0 57 33 101 75 101 23 0 25 4 25 40 0 67 22 107 67
119 21 6 49 12 63 13 l25 3 3 217 c2 207 1 219 -18 238 -19 19 -32 20 -300 20
-267 0 -281 -1 -300 -20z m270 -130 c43 -43 11 -120 -50 -120 -38 0 -70 32
-70 70 0 38 32 70 70 70 17 0 39 -9 50 -20z m21 -195 c35 -19 55 -61 38 -81
-8 -10 -38 -14 -109 -14 -109 0 -128 9 -111 53 20 52 118 74 182 42z"/>
<path d="M738 319 c-15 -8 -18 -24 -18 -84 l0 -75 -55 0 c-74 0 -73 -18 8 -98
81 -81 94 -81 175 1 80 80 81 97 7 97 l-55 0 0 75 c0 63 -3 76 -19 85 -23 12
-22 12 -43 -1z"/>
</g>
</svg>
